<?xml version="1.0" standalone="no"?>
<!DOCTYPE svg PUBLIC "-//W3C//DTD SVG 20010904//EN"
 "http://www.w3.org/TR/2001/REC-SVG-20010904/DTD/svg10.dtd">
<svg version="1.0" xmlns="http://www.w3.org/2000/svg"
 width="700.000000pt" height="700.000000pt" viewBox="0 0 700.000000 700.000000"
 preserveAspectRatio="xMidYMid meet">
<metadata>
Created by potrace 1.11, written by Peter Selinger 2001-2013
</metadata>
<g transform="translate(0.000000,700.000000) scale(0.100000,-0.100000)"
fill="#000000" stroke="none">
<path d="M701 6294 c9 -10 121 -147 250 -304 231 -280 376 -457 1037 -1257
183 -221 332 -407 332 -412 0 -5 -25 -51 -55 -102 -301 -509 -246 -1180 134
-1629 85 -101 96 -112 171 -175 195 -162 398 -262 650 -318 78 -17 129 -21
280 -21 206 0 298 15 466 74 49 17 96 34 104 36 10 4 99 -69 248 -201 l233
-207 817 -507 c449 -279 843 -524 876 -545 32 -20 60 -35 62 -33 2 2 -98 127
-222 278 -125 151 -349 423 -499 604 -150 182 -417 505 -593 718 l-320 388 52
83 c29 46 71 129 94 184 345 831 -146 1763 -1028 1953 -88 19 -136 23 -290 23
-210 0 -323 -19 -484 -79 -72 -27 -93 -31 -106 -22 -9 7 -115 98 -237 204
l-220 192 -849 527 c-467 290 -865 536 -884 548 -34 19 -34 19 -19 0z m3327
-2447 l174 -354 -179 -346 -178 -346 -348 -1 -347 0 -176 353 -176 352 178
347 179 348 350 0 350 0 173 -353z"/>
<path d="M3180 6294 c-199 -24 -452 -83 -623 -145 -78 -28 -86 -33 -75 -48 12
-15 443 -497 477 -533 15 -15 21 -16 76 -3 194 47 518 62 725 36 658 -85 1233
-462 1566 -1027 295 -502 368 -1123 198 -1691 l-36 -121 246 -274 c136 -150
251 -275 257 -276 18 -7 149 302 203 480 34 113 70 275 91 408 23 144 31 513
15 666 -35 345 -124 659 -270 959 -427 873 -1262 1463 -2220 1570 -166 18
-473 18 -630 -1z"/>
<path d="M959 4703 c-142 -305 -226 -610 -259 -937 -16 -153 -8 -524 15 -666
55 -357 173 -698 341 -990 395 -686 1067 -1185 1826 -1354 236 -52 324 -61
618 -61 294 0 381 9 620 61 106 24 370 105 400 124 9 6 -51 79 -215 262 -125
139 -240 265 -254 280 l-26 26 -121 -24 c-515 -101 -1079 2 -1523 279 -262
163 -515 416 -678 678 -318 510 -402 1155 -227 1737 l36 120 -247 274 c-135
150 -251 275 -256 276 -5 2 -28 -36 -50 -85z"/>
</g>
</svg>
