<?xml version="1.0" encoding="UTF-8" standalone="no"?>
<!-- Created with Inkscape (http://www.inkscape.org/) -->

<svg
   xmlns:dc="http://purl.org/dc/elements/1.1/"
   xmlns:cc="http://creativecommons.org/ns#"
   xmlns:rdf="http://www.w3.org/1999/02/22-rdf-syntax-ns#"
   xmlns:svg="http://www.w3.org/2000/svg"
   xmlns="http://www.w3.org/2000/svg"
   xmlns:sodipodi="http://sodipodi.sourceforge.net/DTD/sodipodi-0.dtd"
   xmlns:inkscape="http://www.inkscape.org/namespaces/inkscape"
   width="670.69263"
   height="170"
   viewBox="0 0 177.45409 44.979165"
   version="1.1"
   id="svg2582"
   inkscape:version="0.92.4 (5da689c313, 2019-01-14)"
   sodipodi:docname="LogoStripped.svg"
   inkscape:export-filename="D:\Jnk\bitma22p.png"
   inkscape:export-xdpi="118.80256"
   inkscape:export-ydpi="118.80256">
  <defs
     id="defs2576" />
  <sodipodi:namedview
     id="base"
     pagecolor="#0a0a0a"
     bordercolor="#666666"
     borderopacity="1.0"
     inkscape:pageopacity="0"
     inkscape:pageshadow="2"
     inkscape:zoom="0.28284271"
     inkscape:cx="23.876369"
     inkscape:cy="211.66015"
     inkscape:document-units="px"
     inkscape:current-layer="layer1"
     showgrid="false"
     fit-margin-top="0"
     fit-margin-left="0"
     fit-margin-right="15"
     fit-margin-bottom="0"
     units="px"
     inkscape:window-width="1920"
     inkscape:window-height="1017"
     inkscape:window-x="-8"
     inkscape:window-y="-8"
     inkscape:window-maximized="1">
    <inkscape:grid
       type="xygrid"
       id="grid3175"
       originx="1.3229167"
       originy="1.3229172" />
  </sodipodi:namedview>
  <metadata
     id="metadata2579">
    <rdf:RDF>
      <cc:Work
         rdf:about="">
        <dc:format>image/svg+xml</dc:format>
        <dc:type
           rdf:resource="http://purl.org/dc/dcmitype/StillImage" />
        <dc:title></dc:title>
      </cc:Work>
    </rdf:RDF>
  </metadata>
  <g
     inkscape:label="Layer 1"
     inkscape:groupmode="layer"
     id="layer1"
     transform="translate(-3.9687524,-24.29018)">
    <path
       inkscape:connector-curvature="0"
       id="path2"
       d="m 73.681366,53.63776 h -12.0015 l -1.524,3.6195 c -0.1061,0.233098 -0.22781,0.396875 -0.36513,0.492125 -0.13784,0.09525 -0.34422,0.142875 -0.61912,0.142875 h -3.937 c -0.21193,0 -0.35481,-0.06853 -0.42863,-0.206375 -0.0743,-0.137583 -0.0691,-0.301625 0.0159,-0.492125 l 9.30275,-20.891499 c 0.1479,-0.423069 0.47625,-0.634999 0.98425,-0.634999 h 5.3975 c 0.2749,0 0.48101,0.04762 0.61912,0.142875 0.13759,0.09525 0.25903,0.25929 0.36513,0.492124 l 9.30275,20.891499 c 0.0844,0.1905 0.0897,0.354809 0.0159,0.492125 -0.0744,0.137848 -0.20638,0.206375 -0.39688,0.206375 h -4.191 c -0.29659,0 -0.508,-0.04763 -0.635,-0.142875 -0.127,-0.09525 -0.24341,-0.259027 -0.34925,-0.492125 z m -10.28726,-4.063999 h 8.5725 l -4.28625,-10.06475 z"
       style="fill:#ffffff;fill-opacity:1;stroke:none;stroke-width:0.26458332;stroke-miterlimit:4;stroke-dasharray:none;stroke-opacity:1" />
    <path
       inkscape:connector-curvature="0"
       id="path4"
       d="m 95.705016,52.886346 c 0,-0.3683 0.19368,-0.552982 0.58209,-0.552982 h 2.968622 c 0.40746,0 0.61119,0.184682 0.61119,0.552982 v 1.105956 c 0,1.37795 -0.32015,2.371992 -0.96044,2.983177 -0.64029,0.61119 -1.678522,0.916781 -3.114142,0.916781 h -7.53798 c -1.51342,0 -2.61488,-0.329668 -3.30333,-0.989539 -0.68897,-0.659344 -1.03319,-1.717146 -1.03319,-3.172357 v -6.984999 c 0,-1.455208 0.34422,-2.512483 1.03319,-3.172354 0.68845,-0.659342 1.78991,-0.989542 3.30333,-0.989542 h 7.53798 c 1.43562,0 2.473852,0.305594 3.114142,0.916782 0.64029,0.611187 0.96044,1.605756 0.96044,2.983177 v 1.105958 c 0,0.368829 -0.20373,0.552979 -0.61119,0.552979 h -2.968622 c -0.38841,0 -0.58209,-0.18415 -0.58209,-0.552979 v -0.552979 c 0,-0.659342 -0.38841,-0.989542 -1.16416,-0.989542 h -4.22011 c -0.46566,0 -0.83449,0.02461 -1.10596,0.07276 -0.27199,0.04868 -0.48498,0.135996 -0.64029,0.261937 -0.15557,0.126471 -0.25744,0.305594 -0.30559,0.538427 -0.0487,0.232834 -0.0728,0.543455 -0.0728,0.931334 v 4.773083 c 0,0.368829 0.0241,0.674423 0.0728,0.916781 0.0481,0.242623 0.15002,0.427038 0.30559,0.552979 0.15505,0.126471 0.3683,0.213784 0.64029,0.261938 0.27147,0.04868 0.6403,0.07276 1.10596,0.07276 h 4.22011 c 0.77575,0 1.16416,-0.329671 1.16416,-0.989542 z"
       style="fill:#ffffff;fill-opacity:1;stroke:none;stroke-width:0.26458332;stroke-miterlimit:4;stroke-dasharray:none;stroke-opacity:1" />
    <path
       inkscape:connector-curvature="0"
       id="path6"
       d="m 114.41901,47.851324 c 0,-0.387879 -0.0246,-0.6985 -0.0728,-0.931334 -0.0487,-0.232833 -0.15055,-0.411956 -0.30559,-0.538427 -0.15558,-0.125941 -0.36883,-0.213254 -0.64029,-0.261937 -0.272,-0.04815 -0.6403,-0.07276 -1.10596,-0.07276 h -1.01865 c -0.97049,0 -1.65894,0.194205 -2.06639,0.582084 -0.40746,0.388408 -0.61119,0.989541 -0.61119,1.804458 v 8.905875 c 0,0.36883 -0.19421,0.55298 -0.58208,0.55298 h -3.08505 c -0.40745,0 -0.61118,-0.18415 -0.61118,-0.55298 V 43.136449 c 0,-0.3683 0.20373,-0.55298 0.61118,-0.55298 h 2.59027 c 0.40746,0 0.61119,0.18468 0.61119,0.55298 v 2.0955 c 0.5043,-1.7653 1.91082,-2.64848 4.22011,-2.64848 h 1.65893 c 1.22238,0 2.17276,0.218282 2.85221,0.654844 0.67892,0.436563 1.12501,1.1303 1.33879,2.080948 0.50298,-1.823508 1.91532,-2.735792 4.23731,-2.735792 h 1.97352 c 1.50945,0 2.61223,0.3302 3.30862,0.989542 0.69665,0.659871 1.0451,1.717146 1.0451,3.172354 v 10.593916 c 0,0.368829 -0.2024,0.552979 -0.60695,0.552979 h -3.06414 c -0.40481,0 -0.60696,-0.18415 -0.60696,-0.552979 v -9.487957 c 0,-0.387879 -0.0246,-0.6985 -0.0728,-0.931334 -0.0487,-0.232833 -0.14552,-0.411956 -0.29104,-0.538427 -0.14552,-0.125941 -0.3593,-0.213254 -0.64029,-0.261937 -0.28152,-0.04815 -0.64532,-0.07276 -1.0914,-0.07276 h -1.01865 c -0.97049,0 -1.65894,0.194205 -2.0664,0.582084 -0.40746,0.388408 -0.61118,0.989541 -0.61118,1.804458 v 8.905875 c 0,0.36883 -0.19421,0.55298 -0.58209,0.55298 h -3.08504 c -0.40746,0 -0.61119,-0.18415 -0.61119,-0.55298 z"
       style="fill:#ffffff;fill-opacity:1;stroke:none;stroke-width:0.26458332;stroke-miterlimit:4;stroke-dasharray:none;stroke-opacity:1" />
    <path
       inkscape:connector-curvature="0"
       id="path8"
       d="m 133.71455,37.311117 c 0,-0.365654 0.20373,-0.548481 0.61118,-0.548481 h 3.08505 c 0.38787,0 0.58208,0.182827 0.58208,0.548481 v 2.366433 c 0,0.365654 -0.19421,0.548481 -0.58208,0.548481 h -3.08505 c -0.40745,0 -0.61118,-0.182827 -0.61118,-0.548481 z m 0,5.825332 c 0,-0.3683 0.20373,-0.55298 0.61118,-0.55298 h 3.08505 c 0.38787,0 0.58208,0.18468 0.58208,0.55298 v 14.202832 c 0,0.368829 -0.19421,0.552979 -0.58208,0.552979 h -3.08505 c -0.40745,0 -0.61118,-0.18415 -0.61118,-0.552979 z"
       style="fill:#ffffff;fill-opacity:1;stroke:none;stroke-width:0.26458332;stroke-miterlimit:4;stroke-dasharray:none;stroke-opacity:1" />
    <path
       inkscape:connector-curvature="0"
       id="path10"
       d="m 159.00607,53.730364 c 0,1.455211 -0.33973,2.513013 -1.01865,3.172357 -0.67945,0.659871 -1.78541,0.989539 -3.31787,0.989539 h -7.56709 c -1.51341,0 -2.61487,-0.329668 -3.30332,-0.989539 -0.68897,-0.659344 -1.0332,-1.717146 -1.0332,-3.172357 v -6.984999 c 0,-1.455208 0.34423,-2.512483 1.0332,-3.172354 0.68845,-0.659342 1.78991,-0.989542 3.30332,-0.989542 h 7.56709 c 1.53246,0 2.63842,0.3302 3.31787,0.989542 0.67892,0.659871 1.01865,1.717146 1.01865,3.172354 z m -4.27858,-5.87904 c 0,-0.387879 -0.0246,-0.6985 -0.0728,-0.931334 -0.0487,-0.232833 -0.14552,-0.411956 -0.29104,-0.538427 -0.14552,-0.125941 -0.35904,-0.213254 -0.64029,-0.261937 -0.28152,-0.04815 -0.64532,-0.07276 -1.09141,-0.07276 h -3.46339 c -0.46567,0 -0.8345,0.02461 -1.10596,0.07276 -0.27199,0.04868 -0.48498,0.135996 -0.64029,0.261937 -0.15558,0.126471 -0.25744,0.305594 -0.3056,0.538427 -0.0487,0.232834 -0.0728,0.543455 -0.0728,0.931334 v 4.773082 c 0,0.368829 0.0241,0.674423 0.0728,0.916781 0.0482,0.242623 0.15002,0.427038 0.3056,0.552982 0.15504,0.126468 0.3683,0.213781 0.64029,0.261935 0.27146,0.04868 0.64029,0.07276 1.10596,0.07276 h 3.46339 c 0.44609,0 0.80989,-0.02408 1.09141,-0.07276 0.28125,-0.04815 0.49477,-0.135467 0.64029,-0.261935 0.14552,-0.125944 0.24262,-0.310094 0.29104,-0.552982 0.0482,-0.242623 0.0728,-0.547952 0.0728,-0.916781 z"
       style="fill:#ffffff;fill-opacity:1;stroke:none;stroke-width:0.26458332;stroke-miterlimit:4;stroke-dasharray:none;stroke-opacity:1" />
    <path
       inkscape:connector-curvature="0"
       id="path12"
       d="m 175.0131,47.851324 c 0,-0.387879 -0.0246,-0.6985 -0.0728,-0.931334 -0.0487,-0.232833 -0.15055,-0.411956 -0.3056,-0.538427 -0.15557,-0.125941 -0.36883,-0.213254 -0.64029,-0.261937 -0.27199,-0.04815 -0.64029,-0.07276 -1.10596,-0.07276 h -2.18281 c -0.97049,0 -1.65894,0.194205 -2.0664,0.582084 -0.40745,0.388408 -0.61118,0.989541 -0.61118,1.804458 v 8.905875 c 0,0.36883 -0.19421,0.55298 -0.58209,0.55298 h -3.08504 c -0.40746,0 -0.61119,-0.18415 -0.61119,-0.55298 V 43.136449 c 0,-0.3683 0.20373,-0.55298 0.61119,-0.55298 h 2.59027 c 0.40746,0 0.61119,0.18468 0.61119,0.55298 v 2.0955 c 0.5043,-1.7653 1.91082,-2.64848 4.2201,-2.64848 h 3.17236 c 1.51341,0 2.61435,0.3302 3.30332,0.989542 0.68845,0.659871 1.0332,1.717146 1.0332,3.172354 v 10.593916 c 0,0.368829 -0.19421,0.552979 -0.58208,0.552979 h -3.08505 c -0.40745,0 -0.61118,-0.18415 -0.61118,-0.552979 z"
       style="fill:#ffffff;fill-opacity:1;stroke:none;stroke-width:0.26458332;stroke-miterlimit:4;stroke-dasharray:none;stroke-opacity:1" />
    <path
       inkscape:connector-curvature="0"
       style="opacity:1;fill:#ffffff;fill-opacity:1;stroke:none;stroke-width:5.5562501;stroke-linejoin:miter;stroke-miterlimit:4;stroke-dasharray:none;stroke-opacity:0.30456854"
       d="m 18.520836,28.258931 -5.291667,-1e-6 H 7.9375022 v 5.291667 l 3e-7,5.291667 h 5.2916665 v -5.291667 l 5.291667,10e-7 z"
       id="rect2346-4"
       sodipodi:nodetypes="ccccccccc" />
    <path
       inkscape:connector-curvature="0"
       style="opacity:1;fill:#ffffff;fill-opacity:1;stroke:none;stroke-width:5.5562501;stroke-linejoin:miter;stroke-miterlimit:4;stroke-dasharray:none;stroke-opacity:0.30456854"
       d="M 44.979168,38.842263 V 33.550597 28.25893 h -5.29167 -5.291663 v 5.291667 h 5.291663 v 5.291666 z"
       id="rect2346-4-4"
       sodipodi:nodetypes="ccccccccc" />
    <path
       inkscape:connector-curvature="0"
       style="opacity:1;fill:#ffffff;fill-opacity:1;stroke:none;stroke-width:5.5562501;stroke-linejoin:miter;stroke-miterlimit:4;stroke-dasharray:none;stroke-opacity:0.30456854"
       d="m 34.395835,65.300596 h 5.291663 5.29167 v -5.291667 -5.291666 h -5.29167 v 5.291666 h -5.291663 z"
       id="rect2346-4-4-6"
       sodipodi:nodetypes="ccccccccc" />
    <path
       inkscape:connector-curvature="0"
       style="opacity:1;fill:#ffffff;fill-opacity:1;stroke:none;stroke-width:5.5562501;stroke-linejoin:miter;stroke-miterlimit:4;stroke-dasharray:none;stroke-opacity:0.30456854"
       d="m 7.9375046,54.717266 -2.3e-6,5.291663 v 5.291667 h 5.2916687 5.291668 v -5.291667 h -5.291668 l 1e-6,-5.291663 z"
       id="rect2346-4-4-6-9"
       sodipodi:nodetypes="ccccccccc" />
    <path
       style="opacity:1;fill:#ffffff;fill-opacity:1;stroke:none;stroke-width:21;stroke-linejoin:miter;stroke-miterlimit:4;stroke-dasharray:none;stroke-opacity:0.30456854"
       d="M 79.999999,-4.9999999 70,70 -4.9999999,79.999999 70,90 79.999999,165 90,90 165,79.999999 90,70 Z"
       transform="matrix(0.26458333,0,0,0.26458333,5.291669,25.613097)"
       id="rect2456"
       inkscape:connector-curvature="0"
       sodipodi:nodetypes="ccccccccc" />
    <text
       xml:space="preserve"
       style="font-style:normal;font-variant:normal;font-weight:bold;font-stretch:normal;font-size:26.45833206px;line-height:6.61458302px;font-family:'Geom Graphic';-inkscape-font-specification:'Geom Graphic Bold';font-variant-ligatures:normal;font-variant-caps:normal;font-variant-numeric:normal;text-align:start;letter-spacing:0px;word-spacing:0px;writing-mode:lr-tb;text-anchor:start;fill:#000000;fill-opacity:1;stroke:none;stroke-width:0.26458332"
       x="-3.9825161"
       y="-18.194605"
       id="text834"><tspan
         sodipodi:role="line"
         id="tspan832"
         x="-3.9825161"
         y="-7.7435637"
         style="stroke-width:0.26458332"></tspan></text>
  </g>
</svg>
